<?xml version="1.0" encoding="utf-8"?>
<svg xmlns="http://www.w3.org/2000/svg" viewBox="74.527 94.03 382.891 138.498" xmlns:bx="https://boxy-svg.com" width="382.891px" height="138.498px"><defs><bx:export><bx:file format="svg" path="Sin título.svg"/></bx:export></defs><clipPath id="p.0"><path d="m0 0l377.95276 0l0 226.77165l-377.95276 0l0 -226.77165z" clip-rule="nonzero"/></clipPath><g clip-path="url(#p.0)" transform="matrix(1, 0, 0, 1, 70.517059, 97.571327)"><path d="M 43.878 74.019 C 40.68 74.019 37.701 73.623 34.94 72.831 C 32.18 72.05 29.841 71.118 27.925 70.034 L 25.394 72.612 L 22.253 72.612 L 21.784 53.722 L 24.94 53.722 C 25.659 55.513 26.571 57.404 27.675 59.394 C 28.779 61.383 30.055 63.164 31.503 64.737 C 33.003 66.383 34.675 67.722 36.519 68.753 C 38.373 69.784 40.539 70.3 43.019 70.3 C 46.362 70.3 48.925 69.482 50.706 67.847 C 52.487 66.211 53.378 64.154 53.378 61.675 C 53.378 59.644 52.623 57.935 51.112 56.55 C 49.602 55.154 47.263 53.956 44.097 52.956 C 42.034 52.289 40.138 51.675 38.409 51.112 C 36.68 50.55 35.055 49.972 33.534 49.378 C 30.024 47.982 27.414 45.982 25.706 43.378 C 23.998 40.774 23.144 37.868 23.144 34.659 C 23.144 32.618 23.586 30.659 24.472 28.784 C 25.357 26.899 26.644 25.211 28.331 23.722 C 29.956 22.316 32.029 21.175 34.55 20.3 C 37.081 19.414 39.831 18.972 42.8 18.972 C 45.696 18.972 48.409 19.373 50.94 20.175 C 53.472 20.967 55.461 21.769 56.909 22.581 L 59.159 20.362 L 62.362 20.362 L 62.644 38.191 L 59.487 38.191 C 58.748 36.274 57.878 34.316 56.878 32.316 C 55.888 30.316 54.841 28.654 53.737 27.331 C 52.539 25.904 51.154 24.769 49.581 23.925 C 48.008 23.071 46.164 22.644 44.05 22.644 C 41.404 22.644 39.237 23.394 37.55 24.894 C 35.873 26.394 35.034 28.248 35.034 30.456 C 35.034 32.539 35.763 34.248 37.222 35.581 C 38.69 36.904 40.966 38.066 44.05 39.066 C 45.873 39.68 47.727 40.295 49.612 40.909 C 51.508 41.524 53.19 42.112 54.659 42.675 C 58.222 44.05 60.93 45.946 62.784 48.362 C 64.638 50.779 65.565 53.779 65.565 57.362 C 65.565 59.623 65.034 61.81 63.972 63.925 C 62.92 66.039 61.498 67.795 59.706 69.191 C 57.737 70.732 55.466 71.92 52.894 72.753 C 50.321 73.597 47.315 74.019 43.878 74.019 Z M 112.577 71.847 C 111.493 72.305 110.217 72.732 108.748 73.128 C 107.28 73.524 105.722 73.722 104.077 73.722 C 101.056 73.722 98.832 73.274 97.405 72.378 C 95.988 71.482 95.019 70.196 94.498 68.519 L 94.28 68.519 C 93.446 69.362 92.639 70.081 91.858 70.675 C 91.087 71.258 90.264 71.758 89.389 72.175 C 88.233 72.717 87.118 73.112 86.045 73.362 C 84.983 73.623 83.493 73.753 81.577 73.753 C 78.733 73.753 76.301 72.914 74.28 71.237 C 72.269 69.55 71.264 67.321 71.264 64.55 C 71.264 62.956 71.483 61.602 71.92 60.487 C 72.368 59.362 72.998 58.373 73.811 57.519 C 74.54 56.727 75.389 56.076 76.358 55.566 C 77.337 55.045 78.399 54.566 79.545 54.128 C 81.754 53.316 84.405 52.477 87.498 51.612 C 90.592 50.737 92.853 49.956 94.28 49.269 L 94.28 45.737 C 94.28 45.123 94.228 44.316 94.123 43.316 C 94.03 42.305 93.821 41.456 93.498 40.769 C 93.155 39.977 92.613 39.316 91.873 38.784 C 91.144 38.243 90.181 37.972 88.983 37.972 C 87.899 37.972 86.993 38.123 86.264 38.425 C 85.545 38.727 84.962 39.039 84.514 39.362 C 84.597 39.852 84.811 40.602 85.155 41.612 C 85.498 42.612 85.67 43.581 85.67 44.519 C 85.67 44.935 85.556 45.456 85.327 46.081 C 85.108 46.706 84.79 47.206 84.373 47.581 C 83.811 48.071 83.181 48.451 82.483 48.722 C 81.785 48.993 80.712 49.128 79.264 49.128 C 77.202 49.128 75.639 48.633 74.577 47.644 C 73.524 46.644 72.998 45.347 72.998 43.753 C 72.998 42.378 73.545 41.144 74.639 40.05 C 75.733 38.956 77.061 38.055 78.623 37.347 C 80.176 36.607 81.957 36.034 83.967 35.628 C 85.978 35.222 87.842 35.019 89.561 35.019 C 91.946 35.019 94.134 35.159 96.123 35.441 C 98.113 35.722 99.905 36.305 101.498 37.191 C 103.019 38.055 104.228 39.305 105.123 40.941 C 106.019 42.566 106.467 44.691 106.467 47.316 C 106.467 50.086 106.41 53.378 106.295 57.191 C 106.191 60.993 106.139 63.493 106.139 64.691 C 106.139 65.795 106.301 66.67 106.623 67.316 C 106.957 67.951 107.467 68.43 108.155 68.753 C 108.571 68.941 109.228 69.055 110.123 69.097 C 111.019 69.128 111.837 69.144 112.577 69.144 L 112.577 71.847 Z M 94.28 52.659 C 92.905 53.128 91.54 53.664 90.186 54.269 C 88.842 54.862 87.738 55.493 86.873 56.159 C 85.967 56.847 85.254 57.727 84.733 58.8 C 84.222 59.862 83.967 61.118 83.967 62.566 C 83.967 64.472 84.399 65.857 85.264 66.722 C 86.139 67.576 87.217 68.003 88.498 68.003 C 89.853 68.003 90.962 67.727 91.827 67.175 C 92.702 66.623 93.472 65.946 94.139 65.144 L 94.28 52.659 Z M 157.387 38.769 C 156.283 38.946 155.21 39.368 154.168 40.034 C 153.127 40.691 152.262 41.717 151.574 43.112 C 149.856 46.706 148.168 50.326 146.512 53.972 C 144.856 57.607 143.225 61.133 141.621 64.55 C 141.132 65.581 140.574 66.909 139.949 68.534 C 139.324 70.149 138.804 71.618 138.387 72.941 L 131.621 72.941 C 128.798 66.388 126.382 60.956 124.371 56.644 C 122.371 52.321 120.257 47.68 118.028 42.722 C 117.507 41.566 116.699 40.659 115.606 40.003 C 114.522 39.336 113.413 38.925 112.278 38.769 L 112.278 36.081 L 134.965 36.081 L 134.965 38.769 C 134.132 38.8 133.147 38.987 132.012 39.331 C 130.887 39.675 130.324 40.118 130.324 40.659 C 130.324 40.805 130.371 41.024 130.465 41.316 C 130.569 41.607 130.694 41.941 130.84 42.316 C 131.621 44.18 132.804 46.868 134.387 50.378 C 135.97 53.888 137.647 57.581 139.418 61.456 C 140.647 58.779 141.819 56.159 142.934 53.597 C 144.048 51.034 145.429 47.763 147.074 43.784 C 147.293 43.191 147.418 42.711 147.449 42.347 C 147.491 41.982 147.512 41.737 147.512 41.612 C 147.512 41.164 147.298 40.779 146.871 40.456 C 146.444 40.123 145.934 39.831 145.34 39.581 C 144.736 39.342 144.147 39.159 143.574 39.034 C 143.012 38.909 142.548 38.821 142.184 38.769 L 142.184 36.081 L 157.387 36.081 L 157.387 38.769 Z M 197.744 63.816 C 196.879 65.211 195.837 66.529 194.619 67.769 C 193.41 69.008 192.035 70.071 190.494 70.956 C 188.848 71.894 187.181 72.597 185.494 73.066 C 183.817 73.545 181.884 73.784 179.697 73.784 C 176.061 73.784 172.926 73.269 170.291 72.237 C 167.655 71.206 165.478 69.821 163.759 68.081 C 162.041 66.342 160.754 64.289 159.9 61.925 C 159.056 59.55 158.634 56.977 158.634 54.206 C 158.634 51.696 159.093 49.295 160.009 47.003 C 160.936 44.711 162.249 42.67 163.947 40.878 C 165.613 39.128 167.718 37.717 170.259 36.644 C 172.801 35.56 175.64 35.019 178.775 35.019 C 182.212 35.019 185.035 35.435 187.244 36.269 C 189.452 37.102 191.28 38.258 192.728 39.737 C 194.134 41.133 195.155 42.784 195.791 44.691 C 196.426 46.586 196.744 48.581 196.744 50.675 L 196.744 53.066 L 171.853 53.066 C 171.853 58.097 172.822 61.925 174.759 64.55 C 176.707 67.175 179.791 68.487 184.009 68.487 C 186.311 68.487 188.384 67.857 190.228 66.597 C 192.072 65.326 193.645 63.722 194.947 61.784 L 197.744 63.816 Z M 183.681 49.816 C 183.681 48.347 183.603 46.842 183.447 45.3 C 183.301 43.748 183.046 42.482 182.681 41.503 C 182.265 40.347 181.692 39.477 180.962 38.894 C 180.244 38.3 179.332 38.003 178.228 38.003 C 176.332 38.003 174.822 38.961 173.697 40.878 C 172.572 42.795 171.957 45.826 171.853 49.972 L 183.681 49.816 Z" fill-rule="nonzero" style="fill: rgb(255, 255, 255);"/><path d="M 105.812 84.143 C 105.104 84.247 104.416 84.512 103.75 84.939 C 103.083 85.366 102.531 86.028 102.093 86.924 C 100.739 89.778 99.349 92.82 97.921 96.049 C 96.494 99.268 94.906 102.757 93.156 106.518 C 92.187 108.622 91.244 110.299 90.328 111.549 C 89.421 112.809 88.567 113.778 87.765 114.455 C 87.015 115.08 86.27 115.533 85.531 115.814 C 84.791 116.096 84.046 116.236 83.296 116.236 C 81.807 116.236 80.599 115.82 79.671 114.986 C 78.755 114.153 78.296 113.221 78.296 112.189 C 78.296 111.752 78.349 111.34 78.453 110.955 C 78.557 110.58 78.77 110.189 79.093 109.783 C 79.354 109.439 79.744 109.143 80.265 108.893 C 80.796 108.653 81.39 108.533 82.046 108.533 C 82.921 108.533 83.76 108.84 84.562 109.455 C 85.364 110.07 86.197 110.919 87.062 112.002 C 87.583 111.481 88.224 110.705 88.984 109.674 C 89.744 108.653 90.302 107.601 90.656 106.518 C 88.791 102.59 87.135 99.189 85.687 96.314 C 84.25 93.429 82.635 90.21 80.843 86.658 C 80.447 85.908 79.921 85.325 79.265 84.908 C 78.609 84.491 77.911 84.236 77.171 84.143 L 77.171 82.424 L 91.578 82.424 L 91.578 84.143 C 91.046 84.153 90.432 84.268 89.734 84.486 C 89.036 84.705 88.687 84.991 88.687 85.346 C 88.687 85.471 88.708 85.606 88.75 85.752 C 88.802 85.898 88.89 86.111 89.015 86.393 C 89.546 87.497 90.302 89.028 91.281 90.986 C 92.27 92.934 93.416 95.221 94.718 97.846 C 95.687 95.616 96.51 93.7 97.187 92.096 C 97.875 90.481 98.541 88.898 99.187 87.346 C 99.343 86.95 99.432 86.637 99.453 86.408 C 99.484 86.179 99.5 86.028 99.5 85.955 C 99.5 85.674 99.359 85.429 99.078 85.221 C 98.807 85.002 98.484 84.814 98.109 84.658 C 97.713 84.502 97.333 84.387 96.968 84.314 C 96.614 84.231 96.317 84.174 96.078 84.143 L 96.078 82.424 L 105.812 82.424 L 105.812 84.143 L 105.812 84.143 Z M 130.342 85.205 C 131.509 86.288 132.4 87.585 133.014 89.096 C 133.629 90.596 133.936 92.226 133.936 93.986 C 133.936 95.726 133.629 97.372 133.014 98.924 C 132.41 100.465 131.53 101.788 130.373 102.893 C 129.134 104.07 127.655 104.971 125.936 105.596 C 124.217 106.221 122.248 106.533 120.03 106.533 C 118.113 106.533 116.347 106.262 114.733 105.721 C 113.129 105.169 111.707 104.34 110.467 103.236 C 109.28 102.184 108.337 100.887 107.639 99.346 C 106.952 97.794 106.608 96.059 106.608 94.143 C 106.608 92.268 106.91 90.596 107.514 89.127 C 108.118 87.658 109.025 86.351 110.233 85.205 C 111.4 84.101 112.832 83.247 114.53 82.643 C 116.238 82.038 118.144 81.736 120.248 81.736 C 122.446 81.736 124.379 82.038 126.045 82.643 C 127.722 83.247 129.155 84.101 130.342 85.205 L 130.342 85.205 Z M 124.327 101.518 C 124.67 100.643 124.92 99.58 125.077 98.33 C 125.243 97.07 125.327 95.606 125.327 93.939 C 125.327 92.835 125.248 91.58 125.092 90.174 C 124.936 88.757 124.702 87.643 124.389 86.83 C 124.014 85.84 123.493 85.064 122.827 84.502 C 122.16 83.929 121.316 83.643 120.295 83.643 C 119.181 83.643 118.29 83.95 117.623 84.564 C 116.957 85.179 116.441 85.971 116.077 86.939 C 115.743 87.835 115.514 88.887 115.389 90.096 C 115.264 91.294 115.202 92.544 115.202 93.846 C 115.202 95.554 115.254 96.971 115.358 98.096 C 115.472 99.221 115.743 100.346 116.17 101.471 C 116.535 102.45 117.051 103.221 117.717 103.783 C 118.394 104.346 119.254 104.627 120.295 104.627 C 121.233 104.627 122.04 104.366 122.717 103.846 C 123.394 103.314 123.931 102.538 124.327 101.518 Z M 167.694 105.283 L 156.46 105.971 L 156.116 105.643 L 156.116 102.549 L 155.976 102.549 C 155.444 103.038 154.924 103.518 154.413 103.986 C 153.903 104.445 153.293 104.861 152.585 105.236 C 151.783 105.663 151.022 105.976 150.304 106.174 C 149.595 106.382 148.559 106.486 147.194 106.486 C 144.819 106.486 142.996 105.773 141.726 104.346 C 140.465 102.919 139.835 100.903 139.835 98.299 L 139.835 87.689 C 139.835 87.085 139.715 86.59 139.476 86.205 C 139.246 85.82 138.934 85.476 138.538 85.174 C 138.226 84.934 137.819 84.768 137.319 84.674 C 136.819 84.57 136.366 84.502 135.96 84.471 L 135.96 82.752 L 147.382 82.143 L 147.632 82.486 L 147.632 98.158 C 147.632 99.773 147.939 100.965 148.554 101.736 C 149.179 102.507 150.033 102.893 151.116 102.893 C 152.231 102.893 153.231 102.601 154.116 102.018 C 155.012 101.434 155.663 100.814 156.069 100.158 L 156.069 87.455 C 156.069 86.924 155.965 86.45 155.757 86.033 C 155.559 85.606 155.262 85.257 154.866 84.986 C 154.585 84.799 154.179 84.674 153.647 84.611 C 153.127 84.549 152.59 84.502 152.038 84.471 L 152.038 82.752 L 163.46 82.143 L 163.819 82.486 L 163.819 100.674 C 163.819 101.226 163.929 101.695 164.147 102.08 C 164.366 102.465 164.689 102.788 165.116 103.049 C 165.408 103.236 165.793 103.366 166.272 103.439 C 166.752 103.512 167.226 103.554 167.694 103.564 L 167.694 105.283 Z M 193.072 86.736 C 193.072 87.924 192.702 88.971 191.962 89.877 C 191.223 90.773 190.249 91.221 189.04 91.221 C 187.895 91.221 186.926 90.934 186.134 90.361 C 185.343 89.778 184.947 88.919 184.947 87.783 C 184.947 87.241 184.983 86.82 185.056 86.518 C 185.139 86.205 185.212 85.913 185.275 85.643 C 184.546 85.674 183.78 85.929 182.978 86.408 C 182.186 86.877 181.483 87.502 180.869 88.283 L 180.869 101.221 C 180.869 101.762 180.952 102.215 181.119 102.58 C 181.296 102.945 181.587 103.226 181.994 103.424 C 182.337 103.601 182.9 103.747 183.681 103.861 C 184.462 103.976 185.025 104.044 185.369 104.064 L 185.369 105.783 L 169.603 105.783 L 169.603 104.064 C 169.999 104.033 170.395 103.991 170.79 103.939 C 171.197 103.877 171.54 103.799 171.822 103.705 C 172.322 103.538 172.665 103.273 172.853 102.908 C 173.051 102.544 173.15 102.075 173.15 101.502 L 173.15 87.783 C 173.15 87.221 173.014 86.715 172.744 86.268 C 172.473 85.82 172.15 85.465 171.775 85.205 C 171.494 85.018 171.134 84.861 170.697 84.736 C 170.27 84.601 169.796 84.512 169.275 84.471 L 169.275 82.752 L 180.509 82.143 L 180.869 82.486 L 180.869 85.908 L 180.962 85.908 C 182.046 84.648 183.197 83.663 184.415 82.955 C 185.634 82.236 186.9 81.877 188.212 81.877 C 189.671 81.877 190.843 82.33 191.728 83.236 C 192.624 84.132 193.072 85.299 193.072 86.736 Z" fill-rule="nonzero" style="fill: rgb(255, 255, 255);"/><path d="M 241.185 67.401 C 244.373 69.495 246.951 72.276 248.919 75.745 C 250.888 79.214 251.873 83.464 251.873 88.495 C 251.873 92.922 250.992 96.776 249.232 100.057 C 247.482 103.328 245.154 106.005 242.248 108.089 C 239.31 110.172 235.966 111.724 232.216 112.745 C 228.477 113.766 224.555 114.276 220.451 114.276 L 194.138 114.276 L 194.138 111.401 C 194.919 111.38 195.899 111.307 197.076 111.182 C 198.253 111.057 199.039 110.912 199.435 110.745 C 200.321 110.37 200.935 109.87 201.279 109.245 C 201.623 108.62 201.794 107.865 201.794 106.979 L 201.794 69.948 C 201.794 69.115 201.633 68.36 201.31 67.682 C 200.987 67.005 200.362 66.459 199.435 66.042 C 198.498 65.625 197.508 65.344 196.466 65.198 C 195.425 65.052 194.623 64.953 194.06 64.901 L 194.06 62.026 L 221.857 62.026 C 224.826 62.026 228.003 62.406 231.388 63.167 C 234.784 63.927 238.05 65.339 241.185 67.401 L 241.185 67.401 Z M 233.669 104.854 C 234.878 102.886 235.758 100.547 236.31 97.839 C 236.862 95.12 237.138 91.995 237.138 88.464 C 237.138 85.005 236.768 81.854 236.029 79.011 C 235.3 76.156 234.222 73.724 232.794 71.714 C 231.367 69.703 229.591 68.146 227.466 67.042 C 225.352 65.938 222.94 65.386 220.232 65.386 C 219.378 65.386 218.404 65.406 217.31 65.448 C 216.216 65.479 215.399 65.505 214.857 65.526 L 214.857 105.182 C 214.857 106.068 214.972 106.849 215.201 107.526 C 215.44 108.193 215.841 108.787 216.404 109.307 C 216.966 109.818 217.659 110.219 218.482 110.511 C 219.305 110.792 220.383 110.932 221.716 110.932 C 224.487 110.932 226.867 110.417 228.857 109.386 C 230.847 108.354 232.451 106.844 233.669 104.854 Z M 298.698 113.511 C 297.614 113.969 296.338 114.396 294.87 114.792 C 293.401 115.188 291.844 115.386 290.198 115.386 C 287.177 115.386 284.953 114.938 283.526 114.042 C 282.109 113.146 281.14 111.86 280.62 110.182 L 280.401 110.182 C 279.568 111.026 278.76 111.745 277.979 112.339 C 277.208 112.922 276.385 113.422 275.51 113.839 C 274.354 114.38 273.239 114.776 272.166 115.026 C 271.104 115.287 269.614 115.417 267.698 115.417 C 264.854 115.417 262.422 114.578 260.401 112.901 C 258.39 111.214 257.385 108.985 257.385 106.214 C 257.385 104.62 257.604 103.266 258.041 102.151 C 258.489 101.026 259.12 100.037 259.932 99.182 C 260.661 98.391 261.51 97.74 262.479 97.229 C 263.458 96.708 264.521 96.229 265.666 95.792 C 267.875 94.979 270.526 94.141 273.62 93.276 C 276.713 92.401 278.974 91.62 280.401 90.932 L 280.401 87.401 C 280.401 86.787 280.349 85.979 280.245 84.979 C 280.151 83.969 279.943 83.12 279.62 82.432 C 279.276 81.641 278.734 80.979 277.995 80.448 C 277.265 79.906 276.302 79.636 275.104 79.636 C 274.021 79.636 273.114 79.787 272.385 80.089 C 271.666 80.391 271.083 80.703 270.635 81.026 C 270.719 81.516 270.932 82.266 271.276 83.276 C 271.62 84.276 271.791 85.245 271.791 86.182 C 271.791 86.599 271.677 87.12 271.448 87.745 C 271.229 88.37 270.911 88.87 270.495 89.245 C 269.932 89.735 269.302 90.115 268.604 90.386 C 267.906 90.656 266.833 90.792 265.385 90.792 C 263.323 90.792 261.76 90.297 260.698 89.307 C 259.646 88.307 259.12 87.011 259.12 85.417 C 259.12 84.042 259.666 82.807 260.76 81.714 C 261.854 80.62 263.182 79.719 264.745 79.011 C 266.297 78.271 268.078 77.698 270.088 77.292 C 272.099 76.886 273.963 76.682 275.682 76.682 C 278.068 76.682 280.255 76.823 282.245 77.104 C 284.234 77.386 286.026 77.969 287.62 78.854 C 289.14 79.719 290.349 80.969 291.245 82.604 C 292.14 84.229 292.588 86.354 292.588 88.979 C 292.588 91.75 292.531 95.042 292.416 98.854 C 292.312 102.656 292.26 105.156 292.26 106.354 C 292.26 107.458 292.422 108.333 292.745 108.979 C 293.078 109.615 293.588 110.094 294.276 110.417 C 294.693 110.604 295.349 110.719 296.245 110.761 C 297.14 110.792 297.958 110.807 298.698 110.807 L 298.698 113.511 L 298.698 113.511 Z M 280.401 94.323 C 279.026 94.792 277.661 95.328 276.307 95.932 C 274.963 96.526 273.859 97.156 272.995 97.823 C 272.088 98.511 271.375 99.391 270.854 100.464 C 270.344 101.526 270.088 102.781 270.088 104.229 C 270.088 106.136 270.521 107.521 271.385 108.386 C 272.26 109.24 273.338 109.667 274.62 109.667 C 275.974 109.667 277.083 109.391 277.948 108.839 C 278.823 108.287 279.594 107.61 280.26 106.807 L 280.401 94.323 L 280.401 94.323 Z M 328.93 112.589 C 327.357 113.276 325.675 113.896 323.883 114.448 C 322.091 115 319.909 115.276 317.336 115.276 C 313.503 115.276 310.659 114.344 308.805 112.479 C 306.951 110.604 306.024 107.938 306.024 104.479 L 306.024 81.87 L 299.399 81.87 L 299.399 77.901 L 306.18 77.901 L 306.18 66.745 L 318.133 66.745 L 318.133 77.901 L 328.446 77.901 L 328.446 81.87 L 318.211 81.87 L 318.211 102.057 C 318.211 104.922 318.607 106.958 319.399 108.167 C 320.201 109.365 321.633 109.964 323.696 109.964 C 324.362 109.964 325.284 109.917 326.461 109.823 C 327.638 109.719 328.461 109.61 328.93 109.495 L 328.93 112.589 Z M 371.089 105.479 C 370.224 106.875 369.182 108.193 367.964 109.432 C 366.755 110.672 365.38 111.735 363.839 112.62 C 362.193 113.557 360.526 114.261 358.839 114.729 C 357.161 115.208 355.229 115.448 353.042 115.448 C 349.406 115.448 346.271 114.932 343.635 113.901 C 341 112.87 338.823 111.485 337.104 109.745 C 335.385 108.005 334.099 105.953 333.245 103.589 C 332.401 101.214 331.979 98.641 331.979 95.87 C 331.979 93.36 332.437 90.959 333.354 88.667 C 334.281 86.375 335.594 84.334 337.292 82.542 C 338.958 80.792 341.062 79.38 343.604 78.307 C 346.146 77.224 348.984 76.682 352.12 76.682 C 355.557 76.682 358.38 77.099 360.589 77.932 C 362.797 78.766 364.625 79.922 366.073 81.401 C 367.479 82.797 368.5 84.448 369.135 86.354 C 369.771 88.25 370.089 90.245 370.089 92.339 L 370.089 94.729 L 345.198 94.729 C 345.198 99.761 346.167 103.589 348.104 106.214 C 350.052 108.839 353.135 110.151 357.354 110.151 C 359.656 110.151 361.729 109.521 363.573 108.261 C 365.417 106.99 366.99 105.386 368.292 103.448 L 371.089 105.479 Z M 357.026 91.479 C 357.026 90.011 356.948 88.505 356.792 86.964 C 356.646 85.412 356.391 84.146 356.026 83.167 C 355.609 82.011 355.036 81.141 354.307 80.557 C 353.589 79.964 352.677 79.667 351.573 79.667 C 349.677 79.667 348.167 80.625 347.042 82.542 C 345.917 84.459 345.302 87.49 345.198 91.636 L 357.026 91.479 Z" fill-rule="nonzero" style="fill: rgb(255, 255, 255);"/></g></svg>