<?xml version="1.0" encoding="utf-8"?>
<svg xmlns="http://www.w3.org/2000/svg" viewBox="0 0 500 500">
  <path d="M 249.893 134.37 C 249.893 134.37 250.207 134.75 250.313 134.873 C 250.313 134.873 248.908 133.577 249.373 133.869 C 249.628 134.102 249.971 134.425 250.053 134.52 C 250.121 134.599 250.213 134.715 250.241 134.751 C 250.266 134.784 250.27 134.789 250.281 134.804 C 250.171 134.657 249.944 134.36 249.533 133.836 L 249.534 133.838 L 249.533 133.838 L 250.171 133.801 L 250.159 133.834 C 256.982 115.382 276.788 91.335 304.033 78.508 C 331.072 65.31 365.513 63.193 401.41 87.941 C 421.689 101.943 436.638 122.172 444.324 145.287 C 452.23 168.329 452.912 194.264 445.075 219.591 C 432.89 258.952 413.335 296.04 262.812 418.432 C 259.254 421.269 256.16 425.466 249.466 426.448 C 244.413 426.113 238.061 419.56 235.475 417.474 C 84.951 295.08 65.415 258.029 53.23 218.669 C 45.393 193.342 46.066 167.378 53.972 144.336 C 61.658 121.221 76.533 101.042 96.812 87.041 C 132.71 62.294 167.665 64.745 195.147 78.319 C 208.97 84.977 220.95 94.415 230.314 104.468 C 239.609 114.257 249.893 134.374 249.893 134.374" style="stroke-linecap: round; stroke-width: 30px; fill: rgba(0, 0, 0, 0); stroke-dashoffset: 100px; stroke-miterlimit: 1; stroke: rgb(0, 0, 0);"/>
</svg>