<svg version="1.1" viewBox="0.0 0.0 377.9527559055118 226.77165354330708" fill="none" stroke="none" stroke-linecap="square" stroke-miterlimit="10" xmlns:xlink="http://www.w3.org/1999/xlink" xmlns="http://www.w3.org/2000/svg"><clipPath id="p.0"><path d="m0 0l377.95276 0l0 226.77165l-377.95276 0l0 -226.77165z" clip-rule="nonzero"/></clipPath><g clip-path="url(#p.0)"><path fill="none" d="m0 0l377.95276 0l0 226.77165l-377.95276 0z" fill-rule="evenodd"/><path fill="#000000" fill-opacity="0.0" d="m13.32291 29.82677l204.81891 0l0 99.87402l-204.81891 0z" fill-rule="evenodd"/><path fill="#000000" d="m41.776035 107.62868q-4.796875 0 -8.9375 -1.1875q-4.140625 -1.171875 -7.015625 -2.796875l-2.53125 2.578125l-3.140625 0l-0.46875 -18.890625l3.15625 0q1.078125 2.6875 2.734375 5.671875q1.65625 2.984375 3.828125 5.34375q2.25 2.46875 5.015625 4.015625q2.78125 1.546875 6.5 1.546875q5.015625 0 7.6875 -2.453125q2.671875 -2.453125 2.671875 -6.171875q0 -3.046875 -2.265625 -5.125q-2.265625 -2.09375 -7.015625 -3.59375q-3.09375 -1.0 -5.6875 -1.84375q-2.59375 -0.84375 -4.875 -1.734375q-5.265625 -2.09375 -7.828125 -6.0q-2.5625 -3.90625 -2.5625 -8.71875q0 -3.0625 1.328125 -5.875004q1.328125 -2.828125 3.859375 -5.0625q2.4375 -2.109375 6.21875 -3.421875q3.796875 -1.328125 8.25 -1.328125q4.34375 0 8.140625 1.203125q3.796875 1.1875 5.96875 2.40625l2.25 -2.21875l3.203125 0l0.28125 17.828129l-3.15625 0q-1.109375 -2.875 -2.609375 -5.875q-1.484375 -3.0000038 -3.140625 -4.984379q-1.796875 -2.140625 -4.15625 -3.40625q-2.359375 -1.28125 -5.53125 -1.28125q-3.96875 0 -6.5 2.25q-2.515625 2.25 -2.515625 5.562504q0 3.125 2.1875 5.125q2.203125 1.984375 6.828125 3.484375q2.734375 0.921875 5.5625 1.84375q2.84375 0.921875 5.046875 1.765625q5.34375 2.0625 8.125 5.6875q2.78125 3.625 2.78125 9.0q0 3.390625 -1.59375 6.5625q-1.578125 3.171875 -4.265625 5.265625q-2.953125 2.3125 -6.8125 3.5625q-3.859375 1.265625 -9.015625 1.265625zm68.698685 -2.171875q-1.625 0.6875 -3.828125 1.28125q-2.203125 0.59375 -4.671875 0.59375q-4.53125 0 -6.671875 -1.34375q-2.125 -1.34375 -2.90625 -3.859375l-0.21875 0q-1.25 1.265625 -2.421875 2.15625q-1.15625 0.875 -2.46875 1.5q-1.734375 0.8125 -3.34375 1.1875q-1.59375 0.390625 -4.46875 0.390625q-4.265625 0 -7.296875 -2.515625q-3.015625 -2.53125 -3.015625 -6.6875q0 -2.390625 0.65625 -4.0625q0.671875 -1.6875 1.890625 -2.96875q1.09375 -1.1875 2.546875 -1.953125q1.46875 -0.78125 3.1875 -1.4375q3.3125 -1.21875 7.953125 -2.515625q4.640625 -1.3125 6.78125 -2.34375l0 -3.53125q0 -0.921875 -0.15625 -2.421875q-0.140625 -1.515625 -0.625 -2.546875q-0.515625 -1.1875 -1.625 -1.984375q-1.09375 -0.8125 -2.890625 -0.8125q-1.625 0 -2.71875 0.453125q-1.078125 0.453125 -1.75 0.9375q0.125 0.734375 0.640625 2.25q0.515625 1.5 0.515625 2.90625q0 0.625 -0.34375 1.5625q-0.328125 0.9375 -0.953125 1.5q-0.84375 0.734375 -1.890625 1.140625q-1.046875 0.40625 -3.21875 0.40625q-3.09375 0 -4.6875 -1.484375q-1.578125 -1.5 -1.578125 -3.890625q0 -2.0625 1.640625 -3.703125q1.640625 -1.640625 3.984375 -2.703125q2.328125 -1.109375 5.34375 -1.71875q3.015625 -0.609375 5.59375 -0.609375q3.578125 0 6.5625 0.421875q2.984375 0.421875 5.375 1.75q2.28125 1.296875 3.625 3.75q1.34375 2.4375 1.34375 6.375q0 4.15625 -0.171875 9.875q-0.15625 5.703125 -0.15625 7.5q0 1.65625 0.484375 2.625q0.5 0.953125 1.53125 1.4375q0.625 0.28125 1.96875 0.34375q1.34375 0.046875 2.453125 0.046875l0 2.703125zm-18.296875 -19.1875q-2.0625 0.703125 -4.09375 1.609375q-2.015625 0.890625 -3.3125 1.890625q-1.359375 1.03125 -2.140625 2.640625q-0.765625 1.59375 -0.765625 3.765625q0 2.859375 1.296875 4.15625q1.3125 1.28125 3.234375 1.28125q2.03125 0 3.328125 -0.828125q1.3125 -0.828125 2.3125 -2.03125l0.140625 -12.484375zm63.10724 -13.890625q-1.65625 0.265625 -3.21875 1.265625q-1.5625 0.984375 -2.59375 3.078125q-2.578125 5.390625 -5.0625 10.859375q-2.484375 5.453125 -4.890625 10.578125q-0.734375 1.546875 -1.671875 3.984375q-0.9375 2.421875 -1.5625 4.40625l-6.765625 0q-4.234375 -9.828125 -7.25 -16.296875q-3.0 -6.484375 -6.34375 -13.921875q-0.78125 -1.734375 -2.421875 -2.71875q-1.625 -1.0 -3.328125 -1.234375l0 -2.6875l22.6875 0l0 2.6875q-1.25 0.046875 -2.953125 0.5625q-1.6875 0.515625 -1.6875 1.328125q0 0.21875 0.140625 0.65625q0.15625 0.4375 0.375 1.0q1.171875 2.796875 3.546875 8.0625q2.375 5.265625 5.03125 11.078125q1.84375 -4.015625 3.515625 -7.859375q1.671875 -3.84375 4.140625 -9.8125q0.328125 -0.890625 0.375 -1.4375q0.0625 -0.546875 0.0625 -0.734375q0 -0.671875 -0.640625 -1.15625q-0.640625 -0.5 -1.53125 -0.875q-0.90625 -0.359375 -1.765625 -0.546875q-0.84375 -0.1875 -1.390625 -0.265625l0 -2.6875l15.203125 0l0 2.6875zm40.356766 25.046875q-1.296875 2.09375 -3.125 3.953125q-1.8125 1.859375 -4.125 3.1875q-2.46875 1.40625 -5.0 2.109375q-2.515625 0.71875 -5.796875 0.71875q-5.453125 0 -9.40625 -1.546875q-3.953125 -1.546875 -6.53125 -4.15625q-2.578125 -2.609375 -3.859375 -6.15625q-1.265625 -3.5625 -1.265625 -7.71875q0 -3.765625 1.375 -7.203125q1.390625 -3.4375 3.9375 -6.125q2.5 -2.625 6.3125 -4.234375q3.8125 -1.625 8.515625 -1.625q5.15625 0 8.46875 1.25q3.3125 1.25 5.484375 3.46875q2.109375 2.09375 3.0625 4.953125q0.953125 2.84375 0.953125 5.984375l0 2.390625l-24.890625 0q0 7.546875 2.90625 11.484375q2.921875 3.9375 9.25 3.9375q3.453125 0 6.21875 -1.890625q2.765625 -1.90625 4.71875 -4.8125l2.796875 2.03125zm-14.0625 -14.0q0 -2.203125 -0.234375 -4.515625q-0.21875 -2.328125 -0.765625 -3.796875q-0.625 -1.734375 -1.71875 -2.609375q-1.078125 -0.890625 -2.734375 -0.890625q-2.84375 0 -4.53125 2.875q-1.6875 2.875 -1.84375 9.09375l11.828125 -0.15625z" fill-rule="nonzero"/><path fill="#000000" fill-opacity="0.0" d="m71.72582 89.075714l157.70078 0l0 66.96063l-157.70078 0z" fill-rule="evenodd"/><path fill="#000000" d="m103.7102 117.75253q-1.0625 0.15625 -2.0625 0.796875q-1.0 0.640625 -1.65625 1.984375q-2.03125 4.28125 -4.171875 9.125q-2.140625 4.828125 -4.765625 10.46875q-1.453125 3.15625 -2.828125 5.03125q-1.359375 1.890625 -2.5625 2.90625q-1.125 0.9375 -2.234375 1.359375q-1.109375 0.421875 -2.234375 0.421875q-2.234375 0 -3.625 -1.25q-1.375 -1.25 -1.375 -2.796875q0 -0.65625 0.15625 -1.234375q0.15625 -0.5625 0.640625 -1.171875q0.390625 -0.515625 1.171875 -0.890625q0.796875 -0.359375 1.78125 -0.359375q1.3125 0 2.515625 0.921875q1.203125 0.921875 2.5 2.546875q0.78125 -0.78125 1.921875 -2.328125q1.140625 -1.53125 1.671875 -3.15625q-2.796875 -5.890625 -4.96875 -10.203125q-2.15625 -4.328125 -4.84375 -9.65625q-0.59375 -1.125 -1.578125 -1.75q-0.984375 -0.625 -2.09375 -0.765625l0 -1.71875l14.40625 0l0 1.71875q-0.796875 0.015625 -1.84375 0.34375q-1.046875 0.328125 -1.046875 0.859375q0 0.1875 0.0625 0.40625q0.078125 0.21875 0.265625 0.640625q0.796875 1.65625 2.265625 4.59375q1.484375 2.921875 3.4375 6.859375q1.453125 -3.34375 2.46875 -5.75q1.03125 -2.421875 2.0 -4.75q0.234375 -0.59375 0.265625 -0.9375q0.046875 -0.34375 0.046875 -0.453125q0 -0.421875 -0.421875 -0.734375q-0.40625 -0.328125 -0.96875 -0.5625q-0.59375 -0.234375 -1.140625 -0.34375q-0.53125 -0.125 -0.890625 -0.171875l0 -1.71875l9.734375 0l0 1.71875zm24.530159 1.0625q1.75 1.625 2.671875 3.890625q0.921875 2.25 0.921875 4.890625q0 2.609375 -0.921875 4.9375q-0.90625 2.3125 -2.640625 3.96875q-1.8593674 1.765625 -4.4374924 2.703125q-2.578125 0.9375 -5.90625 0.9375q-2.875 0 -5.296875 -0.8125q-2.40625 -0.828125 -4.265625 -2.484375q-1.78125 -1.578125 -2.828125 -3.890625q-1.03125 -2.328125 -1.03125 -5.203125q0 -2.8125 0.90625 -5.015625q0.90625 -2.203125 2.71875 -3.921875q1.75 -1.65625 4.296875 -2.5625q2.5625 -0.90625 5.71875 -0.90625q3.296875 0 5.796875 0.90625q2.515625 0.90625 4.2968674 2.5625zm-6.0156174 16.3125q0.515625 -1.3125 0.75 -3.1875q0.25 -1.890625 0.25 -4.390625q0 -1.65625 -0.234375 -3.765625q-0.234375 -2.125 -0.703125 -3.34375q-0.5625 -1.484375 -1.5625 -2.328125q-1.0 -0.859375 -2.53125 -0.859375q-1.671875 0 -2.671875 0.921875q-1.0 0.921875 -1.546875 2.375q-0.5 1.34375 -0.6875 3.15625q-0.1875 1.796875 -0.1875 3.75q0 2.5625 0.15625 4.25q0.171875 1.6875 0.8125 3.375q0.546875 1.46875 1.546875 2.3125q1.015625 0.84375 2.578125 0.84375q1.40625 0 2.421875 -0.78125q1.015625 -0.796875 1.609375 -2.328125zm43.367744 3.765625l-11.234375 0.6875l-0.34375 -0.328125l0 -3.09375l-0.140625 0q-0.796875 0.734375 -1.5625 1.4375q-0.765625 0.6875 -1.828125 1.25q-1.203125 0.640625 -2.28125 0.9375q-1.0625 0.3125 -3.109375 0.3125q-3.5625 0 -5.46875 -2.140625q-1.890625 -2.140625 -1.890625 -6.046875l0 -10.609375q0 -0.90625 -0.359375 -1.484375q-0.34375 -0.578125 -0.9375 -1.03125q-0.46875 -0.359375 -1.21875 -0.5q-0.75 -0.15625 -1.359375 -0.203125l0 -1.71875l11.421875 -0.609375l0.25 0.34375l0 15.671875q0 2.421875 0.921875 3.578125q0.9375 1.15625 2.5625 1.15625q1.671875 0 3.0 -0.875q1.34375 -0.875 1.953125 -1.859375l0 -12.703125q0 -0.796875 -0.3125 -1.421875q-0.296875 -0.640625 -0.890625 -1.046875q-0.421875 -0.28125 -1.21875 -0.375q-0.78125 -0.09375 -1.609375 -0.140625l0 -1.71875l11.421875 -0.609375l0.359375 0.34375l0 18.1875q0 0.828125 0.328125 1.40625q0.328125 0.578125 0.96875 0.96875q0.4375 0.28125 1.15625 0.390625q0.71875 0.109375 1.421875 0.125l0 1.71875zm25.377365 -18.546875q0 1.78125 -1.109375 3.140625q-1.109375 1.34375 -2.921875 1.34375q-1.71875 0 -2.90625 -0.859375q-1.1875 -0.875 -1.1875 -2.578125q0 -0.8125 0.109375 -1.265625q0.125 -0.46875 0.21875 -0.875q-1.09375 0.046875 -2.296875 0.765625q-1.1875 0.703125 -2.109375 1.875l0 12.9375q0 0.8125 0.25 1.359375q0.265625 0.546875 0.875 0.84375q0.515625 0.265625 1.6875 0.4375q1.171875 0.171875 1.6875 0.203125l0 1.71875l-15.765625 0l0 -1.71875q0.59375 -0.046875 1.1875 -0.125q0.609375 -0.09375 1.03125 -0.234375q0.75 -0.25 1.03125 -0.796875q0.296875 -0.546875 0.296875 -1.40625l0 -13.71875q0 -0.84375 -0.40625 -1.515625q-0.40625 -0.671875 -0.96875 -1.0625q-0.421875 -0.28125 -1.078125 -0.46875q-0.640625 -0.203125 -1.421875 -0.265625l0 -1.71875l11.234375 -0.609375l0.359375 0.34375l0 3.421875l0.09375 0q1.625 -1.890625 3.453125 -2.953125q1.828125 -1.078125 3.796875 -1.078125q2.1875 0 3.515625 1.359375q1.34375 1.34375 1.34375 3.5z" fill-rule="nonzero"/><path fill="#000000" fill-opacity="0.0" d="m185.4895 71.490585l207.3071 0l0 99.87401l-207.3071 0z" fill-rule="evenodd"/><path fill="#000000" d="m239.08325 101.01124q4.78125 3.140625 7.734375 8.34375q2.953125 5.203125 2.953125 12.75q0 6.6406174 -2.640625 11.562492q-2.625 4.90625 -6.984375 8.03125q-4.40625 3.125 -10.03125 4.65625q-5.609375 1.53125 -11.765625 1.53125l-26.3125 0l0 -2.875q1.171875 -0.03125 2.9375 -0.21875q1.765625 -0.1875 2.359375 -0.4375q1.328125 -0.5625 1.84375 -1.5q0.515625 -0.9375 0.515625 -2.265625l0 -37.031242q0 -1.25 -0.484375 -2.265625q-0.484375 -1.015625 -1.875 -1.640625q-1.40625 -0.625 -2.96875 -0.84375q-1.5625 -0.21875 -2.40625 -0.296875l0 -2.875l27.796875 0q4.453125 0 9.53125 1.140625q5.09375 1.140625 9.796875 4.234375zm-7.515625 37.453117q1.8125 -2.953125 2.640625 -7.015625q0.828125 -4.0781174 0.828125 -9.374992q0 -5.1875 -1.109375 -9.453125q-1.09375 -4.28125 -3.234375 -7.296875q-2.140625 -3.015625 -5.328125 -4.671875q-3.171875 -1.65625 -7.234375 -1.65625q-1.28125 0 -2.921875 0.0625q-1.640625 0.046875 -2.453125 0.078125l0 39.656242q0 1.328125 0.34375 2.34375q0.359375 1.0 1.203125 1.78125q0.84375 0.765625 2.078125 1.203125q1.234375 0.421875 3.234375 0.421875q4.15625 0 7.140625 -1.546875q2.984375 -1.546875 4.8125 -4.53125zm65.02826 8.65625q-1.625 0.6875 -3.828125 1.28125q-2.203125 0.59375 -4.671875 0.59375q-4.53125 0 -6.671875 -1.34375q-2.125 -1.34375 -2.90625 -3.859375l-0.21875 0q-1.25 1.265625 -2.421875 2.15625q-1.15625 0.875 -2.46875 1.5q-1.734375 0.8125 -3.34375 1.1875q-1.59375 0.390625 -4.46875 0.390625q-4.265625 0 -7.296875 -2.515625q-3.015625 -2.53125 -3.015625 -6.6875q0 -2.390625 0.65625 -4.0625q0.671875 -1.6875 1.890625 -2.96875q1.09375 -1.1875 2.546875 -1.953125q1.46875 -0.78125 3.1875 -1.4375q3.3125 -1.21875 7.953125 -2.5156174q4.640625 -1.3125 6.78125 -2.34375l0 -3.53125q0 -0.921875 -0.15625 -2.421875q-0.140625 -1.515625 -0.625 -2.546875q-0.515625 -1.1875 -1.625 -1.984375q-1.09375 -0.8125 -2.890625 -0.8125q-1.625 0 -2.71875 0.453125q-1.078125 0.453125 -1.75 0.9375q0.125 0.734375 0.640625 2.25q0.515625 1.5 0.515625 2.90625q0 0.625 -0.34375 1.5625q-0.328125 0.9375 -0.953125 1.5q-0.84375 0.734375 -1.890625 1.140625q-1.046875 0.40625 -3.21875 0.40625q-3.09375 0 -4.6875 -1.484375q-1.578125 -1.5 -1.578125 -3.890625q0 -2.0625 1.640625 -3.703125q1.640625 -1.640625 3.984375 -2.703125q2.328125 -1.109375 5.34375 -1.71875q3.015625 -0.609375 5.59375 -0.609375q3.578125 0 6.5625 0.421875q2.984375 0.421875 5.375 1.75q2.28125 1.296875 3.625 3.75q1.34375 2.4375 1.34375 6.375q0 4.15625 -0.171875 9.874992q-0.15625 5.703125 -0.15625 7.5q0 1.65625 0.484375 2.625q0.5 0.953125 1.53125 1.4375q0.625 0.28125 1.96875 0.34375q1.34375 0.046875 2.453125 0.046875l0 2.703125zm-18.296875 -19.187492q-2.0625 0.7031174 -4.09375 1.6093674q-2.015625 0.890625 -3.3125 1.890625q-1.359375 1.03125 -2.140625 2.640625q-0.765625 1.59375 -0.765625 3.765625q0 2.859375 1.296875 4.15625q1.3125 1.28125 3.234375 1.28125q2.03125 0 3.328125 -0.828125q1.3125 -0.828125 2.3125 -2.03125l0.140625 -12.484367zm48.529114 18.265617q-2.359375 1.03125 -5.046875 1.859375q-2.6875 0.828125 -6.546875 0.828125q-5.75 0 -8.53125 -2.796875q-2.78125 -2.8125 -2.78125 -8.0l0 -22.609367l-6.625 0l0 -3.96875l6.78125 0l0 -11.15625l11.953125 0l0 11.15625l10.3125 0l0 3.96875l-10.234375 0l0 20.187492q0 4.296875 1.1875 6.109375q1.203125 1.796875 4.296875 1.796875q1.0 0 2.765625 -0.140625q1.765625 -0.15625 2.46875 -0.328125l0 3.09375zm42.15854 -7.109375q-1.296875 2.09375 -3.125 3.953125q-1.8125 1.859375 -4.125 3.1875q-2.46875 1.40625 -5.0 2.109375q-2.515625 0.71875 -5.796875 0.71875q-5.453125 0 -9.40625 -1.546875q-3.953125 -1.546875 -6.53125 -4.15625q-2.578125 -2.609375 -3.859375 -6.15625q-1.265625 -3.5625 -1.265625 -7.71875q0 -3.7656174 1.375 -7.2031174q1.390625 -3.4375 3.9375 -6.125q2.5 -2.625 6.3125 -4.234375q3.8125 -1.625 8.515625 -1.625q5.15625 0 8.46875 1.25q3.3125 1.25 5.484375 3.46875q2.109375 2.09375 3.0625 4.953125q0.953125 2.84375 0.953125 5.984375l0 2.3906174l-24.890625 0q0 7.546875 2.90625 11.484375q2.921875 3.9375 9.25 3.9375q3.453125 0 6.21875 -1.890625q2.765625 -1.90625 4.71875 -4.8125l2.796875 2.03125zm-14.0625 -13.999992q0 -2.203125 -0.234375 -4.515625q-0.21875 -2.328125 -0.765625 -3.796875q-0.625 -1.734375 -1.71875 -2.609375q-1.078125 -0.890625 -2.734375 -0.890625q-2.84375 0 -4.53125 2.875q-1.6875 2.875 -1.84375 9.09375l11.828125 -0.15625z" fill-rule="nonzero"/></g></svg>